<svg id="Layer_1" data-name="Layer 1" xmlns="http://www.w3.org/2000/svg" xmlns:xlink="http://www.w3.org/1999/xlink" viewBox="0 0 938.62 944.62"><defs><style>.cls-1{fill:url(#linear-gradient);}.cls-2{fill:url(#linear-gradient-2);}.cls-3{fill:url(#linear-gradient-3);}.cls-4{font-size:122.47px;fill:#f2f2f2;font-family:HarlowSolid, Harlow Solid Italic;}</style><linearGradient id="linear-gradient" x1="-259.95" y1="536.85" x2="695.75" y2="-347.53" gradientUnits="userSpaceOnUse"><stop offset="0" stop-color="#3f76ff" stop-opacity="0.8"/><stop offset="1" stop-color="#6affd7" stop-opacity="0.5"/></linearGradient><linearGradient id="linear-gradient-2" x1="5.17" y1="823.34" x2="960.87" y2="-61.03" xlink:href="#linear-gradient"/><linearGradient id="linear-gradient-3" x1="168.82" y1="1000.19" x2="1124.52" y2="115.82" xlink:href="#linear-gradient"/></defs><path class="cls-1" d="M180.51,28.62A158.45,158.45,0,0,0,29.7,138.49L460.06,28.62Z"/><path class="cls-2" d="M22.62,294.33V786.22A158.39,158.39,0,0,0,181,944.62H428.35L247.66,236.88Z"/><path class="cls-3" d="M780.22,28.62H650.44l25.27,99L428.27,190.77,620.73,944.62c131.34,1.68,309.46,23.89,317.89-158.4V187A158.39,158.39,0,0,0,780.22,28.62Z"/><text class="cls-4" transform="translate(25.94 252.76) rotate(-14.19)">RackAware</text></svg>