<svg xmlns="http://www.w3.org/2000/svg" viewBox="0 0 480 480"><linearGradient id="a" gradientUnits="userSpaceOnUse" x1="17.468" y1="-28.012" x2="460.468" y2="569.988"><stop offset="0" stop-color="#6a7cff" stop-opacity=".6"/><stop offset="1" stop-color="#ff6a9c" stop-opacity=".8"/></linearGradient><path d="M479.4 85.2c-.1-.2-.2-.4-.3-.7-.1-.2-.2-.5-.3-.7l-48-80c-1.4-2.4-4-3.9-6.9-3.9H56c-2.8 0-5.4 1.5-6.9 3.9l-48 80c-.1.2-.2.4-.3.7-.1.2-.2.4-.3.7C.2 86.1 0 87 0 88v384c0 4.4 3.6 8 8 8h464c4.4 0 8-3.6 8-8V88c0-1-.2-1.9-.6-2.8zM457.9 80H424V23.6L457.9 80zM72 80V16h336v64H72zM56 23.6V80H22.1L56 23.6zM464 464H16V96h448v368z" fill="url(#a)"/><linearGradient id="b" gradientUnits="userSpaceOnUse" x1="196.491" y1="120.326" x2="321.491" y2="211.326"><stop offset="0" stop-color="#00e7f0" stop-opacity=".4"/><stop offset=".709" stop-color="#f83fff" stop-opacity=".6"/></linearGradient><path d="M192 176h96c13.3 0 24-10.7 24-24s-10.7-24-24-24h-96c-13.3 0-24 10.7-24 24s10.7 24 24 24zm0-32h96c4.4 0 8 3.6 8 8s-3.6 8-8 8h-96c-4.4 0-8-3.6-8-8s3.6-8 8-8z" fill="url(#b)"/><linearGradient id="c" gradientUnits="userSpaceOnUse" x1="-42.028" y1="454.433" x2="284.972" y2="438.433"><stop offset=".005" stop-color="#ff3faa" stop-opacity=".8"/><stop offset="1" stop-color="#6aa9ff" stop-opacity=".4"/></linearGradient><path d="M59.6 439.6h18.8v18.8H59.6v-18.8z" fill="url(#c)"/><linearGradient id="d" gradientUnits="userSpaceOnUse" x1="-42.117" y1="452.601" x2="284.883" y2="436.601"><stop offset=".005" stop-color="#ff3faa" stop-opacity=".8"/><stop offset="1" stop-color="#6aa9ff" stop-opacity=".4"/></linearGradient><path d="M22.1 439.6h18.8v18.8H22.1v-18.8z" fill="url(#d)"/><linearGradient id="e" gradientUnits="userSpaceOnUse" x1="-41.938" y1="456.265" x2="285.062" y2="440.265"><stop offset=".005" stop-color="#ff3faa" stop-opacity=".8"/><stop offset="1" stop-color="#6aa9ff" stop-opacity=".4"/></linearGradient><path d="M97.2 439.6H116v18.8H97.2v-18.8z" fill="url(#e)"/><linearGradient id="f" gradientUnits="userSpaceOnUse" x1="-41.848" y1="458.098" x2="285.152" y2="442.098"><stop offset=".005" stop-color="#ff3faa" stop-opacity=".8"/><stop offset="1" stop-color="#6aa9ff" stop-opacity=".4"/></linearGradient><path d="M134.7 439.6h18.8v18.8h-18.8v-18.8z" fill="url(#f)"/><linearGradient id="g" gradientUnits="userSpaceOnUse" x1="-41.759" y1="459.93" x2="285.241" y2="443.93"><stop offset=".005" stop-color="#ff3faa" stop-opacity=".8"/><stop offset="1" stop-color="#6aa9ff" stop-opacity=".4"/></linearGradient><path d="M172.2 439.6H191v18.8h-18.8v-18.8z" fill="url(#g)"/></svg>