<svg version="1.1" id="Capa_1" xmlns="http://www.w3.org/2000/svg" x="0" y="0" viewBox="0 0 512 512" xml:space="preserve"><style>.st0{fill:#e9fbff}</style><path class="st0" d="M336 112H112c-8.8 0-16 7.2-16 16v224c0 8.8 7.2 16 16 16h240V128c0-8.8-7.2-16-16-16z"/><path class="st0" d="M128 160c0-8.8-7.2-16-16-16H16c-8.8 0-16 7.2-16 16s7.2 16 16 16h96c8.8 0 16-7.2 16-16zM112 208H48c-8.8 0-16 7.2-16 16s7.2 16 16 16h64c8.8 0 16-7.2 16-16s-7.2-16-16-16zM112 272H80c-8.8 0-16 7.2-16 16s7.2 16 16 16h32c8.8 0 16-7.2 16-16s-7.2-16-16-16zM509.7 263.8l-48-80c-2.9-4.8-8.1-7.8-13.7-7.8H336c-8.8 0-16 7.2-16 16v160c0 8.8 7.2 16 16 16h160c8.8 0 16-7.2 16-16v-80c0-2.9-.8-5.8-2.3-8.2z"/><path class="st0" d="M384 208h54.9l38.4 64H384z"/><circle class="st0" cx="432" cy="352" r="32"/><path class="st0" d="M432 400c-26.5 0-48-21.5-48-48s21.5-48 48-48 48 21.5 48 48-21.5 48-48 48zm0-64c-8.8 0-16 7.2-16 16s7.2 16 16 16 16-7.2 16-16-7.2-16-16-16zM352 368H112c-8.8 0-16-7.2-16-16v-48h256v64z"/><circle class="st0" cx="208" cy="352" r="32"/><path class="st0" d="M208 400c-26.5 0-48-21.5-48-48s21.5-48 48-48 48 21.5 48 48-21.5 48-48 48zm0-64c-8.8 0-16 7.2-16 16s7.2 16 16 16 16-7.2 16-16-7.2-16-16-16z"/></svg>