<svg id="Layer_1" data-name="Layer 1" xmlns="http://www.w3.org/2000/svg" xmlns:xlink="http://www.w3.org/1999/xlink" viewBox="0 0 807 807"><defs><linearGradient id="linear-gradient" x1="-116.3" y1="608.19" x2="721.21" y2="-253.77" gradientUnits="userSpaceOnUse"><stop offset="0" stop-color="#59f"/><stop offset="1" stop-color="#c0aaff"/></linearGradient><linearGradient id="linear-gradient-2" x1="122.49" y1="840.2" x2="960" y2="-21.76" xlink:href="#linear-gradient"/><linearGradient id="linear-gradient-3" x1="266.19" y1="979.82" x2="1103.7" y2="117.86" xlink:href="#linear-gradient"/><linearGradient id="linear-gradient-4" x1="564.03" y1="286.03" x2="786.2" y2="57.38" xlink:href="#linear-gradient"/><linearGradient id="linear-gradient-5" x1="551" y1="273.36" x2="773.16" y2="44.72" xlink:href="#linear-gradient"/><linearGradient id="linear-gradient-6" x1="537.16" y1="259.91" x2="759.32" y2="31.26" xlink:href="#linear-gradient"/><linearGradient id="linear-gradient-7" x1="610.1" y1="335.65" x2="832.27" y2="107" gradientTransform="translate(100.73 -223.89) rotate(18.38)" xlink:href="#linear-gradient"/></defs><path d="M205.68,68.62A140.06,140.06,0,0,0,65.62,208.68v60.53L669.46,68.62Z" transform="translate(-65.62 -68.62)" style="fill:url(#linear-gradient)"/><path d="M65.62,439.41V735.55A140.07,140.07,0,0,0,205.68,875.62h328.7L357.29,342.52Z" transform="translate(-65.62 -68.62)" style="fill:url(#linear-gradient-2)"/><path d="M779.61,76.73l37.55,113L510.58,291.6l194,584h28A140.07,140.07,0,0,0,872.62,735.55V208.68A140.11,140.11,0,0,0,779.61,76.73Z" transform="translate(-65.62 -68.62)" style="fill:url(#linear-gradient-3)"/><polygon points="748.53 119.98 746.97 115.31 728.27 121.52 726.71 116.84 740.74 112.18 739.19 107.51 725.16 112.17 723.61 107.49 742.31 101.28 740.76 96.6 717.38 104.37 725.14 127.75 748.53 119.98" style="fill:url(#linear-gradient-4)"/><polygon points="695.55 116.81 701.76 135.52 706.44 133.96 700.23 115.26 709.58 112.15 708.02 107.48 684.64 115.24 686.2 119.92 695.55 116.81" style="fill:url(#linear-gradient-5)"/><polygon points="653.45 146.38 647.24 127.67 642.56 129.22 650.33 152.6 669.03 146.39 667.48 141.72 653.45 146.38" style="fill:url(#linear-gradient-6)"/><rect x="739.99" y="187.12" width="4.93" height="24.64" transform="translate(-90.63 175.61) rotate(-18.38)" style="fill:url(#linear-gradient-7)"/></svg>